<svg height="512" viewBox="0 0 64 64" width="512" xmlns="http://www.w3.org/2000/svg"><g id="graduation_cap-world-globe-book-education" data-name="graduation cap-world-globe-book-education"><path d="m6 17h2v9h-2z" fill="#365e7d"/><path d="m7 24a3 3 0 0 1 3 3v3h-6v-3a3 3 0 0 1 3-3z" fill="#e28086"/><path d="m32 3-29 13 29 15 29-15z" fill="#4a80aa"/><path d="m60.41 57.59a1.955 1.955 0 0 1 .59 1.41 2.006 2.006 0 0 1 -2 2h-47a9 9 0 0 1 0-18h47a2.015 2.015 0 0 1 2 2 2.006 2.006 0 0 1 -2 2h-1v10h1a1.955 1.955 0 0 1 1.41.59z" fill="#7e543b"/><path d="m58 47v10h-44a5 5 0 1 1 0-10z" fill="#e9e9ea"/><circle cx="32" cy="26" fill="#5bcbfa" r="17"/><g fill="#6fc991"><path d="m47.49 19a16.973 16.973 0 0 1 -2.53 17.99l-3.96-.99-3 2h-4v-3l-4-2 1-6 3-2 5-2 3-3 4.19-3.35a14.942 14.942 0 0 1 1.3 2.35z"/><path d="m42.42 12.58-2.42 2.42-3 1-2 3-6-1-4-2-3.97-2.98a16.966 16.966 0 0 1 21.39-.44z"/><path d="m28 22 1 4-2 1-4 4v9.42a16.967 16.967 0 0 1 -8-14.42 16.793 16.793 0 0 1 .64-4.62l4.36.62 4-1z"/></g><path d="m51 51v4l-3-2-3 2v-4z" fill="#f6cc4f"/><path d="m14 50h41v2h-41z" fill="#d8d7da"/></g></svg>