<svg height="512" viewBox="0 0 64 64" width="512" xmlns="http://www.w3.org/2000/svg"><g id="Light_bulb-brain-idea-technology-artificial_intelligence" data-name="Light bulb-brain-idea-technology-artificial intelligence"><path d="m44.99 35.1a5 5 0 0 1 4.01 4.9 4.946 4.946 0 0 1 -.71 2.56 5 5 0 0 1 -2.29 9.44 4.662 4.662 0 0 1 -1.13-.13 4.662 4.662 0 0 1 .13 1.13 5 5 0 0 1 -10 0v-18a5 5 0 0 1 10 0 .34.34 0 0 1 -.01.1z" fill="#ec455a"/><path d="m19.01 35.1a.34.34 0 0 1 -.01-.1 5 5 0 0 1 10 0v18a5 5 0 0 1 -10 0 4.662 4.662 0 0 1 .13-1.13 4.662 4.662 0 0 1 -1.13.13 5 5 0 0 1 -2.29-9.44 4.946 4.946 0 0 1 -.71-2.56 5 5 0 0 1 4.01-4.9z" fill="#ec455a"/><g fill="#f6cc4f"><circle cx="58" cy="58" r="3"/><circle cx="58" cy="44" r="3"/><circle cx="58" cy="30" r="3"/><circle cx="6" cy="58" r="3"/><circle cx="6" cy="44" r="3"/><circle cx="6" cy="30" r="3"/></g><path d="m26 32h12v2a6 6 0 0 1 -12 0z" fill="#c1c0c1"/><path d="m43 20a10.918 10.918 0 0 1 -3 7.53v.47h-16v-.47a10.994 10.994 0 1 1 19-7.53z" fill="#f6cc4f"/><path d="m40 28v2a2.006 2.006 0 0 1 -2 2h-12a2.006 2.006 0 0 1 -2-2v-2z" fill="#636263"/><path d="m31 2h2v4h-2z"/><path d="m19.686 6.687h2v4h-2z" transform="matrix(.707 -.707 .707 .707 -.083 17.173)"/><path d="m14 19h4v2h-4z"/><path d="m46 19h4v2h-4z"/><path d="m41.314 7.687h4v2h-4z" transform="matrix(.707 -.707 .707 .707 6.544 33.172)"/><path d="m58 48a4 4 0 1 0 -3.86-5h-3.68a5.711 5.711 0 0 0 -.89-.81 5.853 5.853 0 0 0 .43-2.19 6 6 0 0 0 -4.04-5.65c-.01-.12-.03-.23-.05-.35h4.09a1 1 0 0 0 .83-.45l1.71-2.55h1.6a4 4 0 1 0 0-2h-2.14a1 1 0 0 0 -.83.45l-1.71 2.55h-4.27a6.017 6.017 0 0 0 -4.19-2.91v-1.17a12 12 0 1 0 -18 0v1.17a6.017 6.017 0 0 0 -4.19 2.91h-4.27l-1.71-2.55a1 1 0 0 0 -.83-.45h-2.14a4 4 0 1 0 0 2h1.6l1.71 2.55a1 1 0 0 0 .83.45h4.09c-.02.12-.04.23-.05.35a6 6 0 0 0 -4.04 5.65 5.853 5.853 0 0 0 .43 2.19 6.254 6.254 0 0 0 -.89.81h-3.68a4 4 0 1 0 0 2h2.5a5.809 5.809 0 0 0 -.36 2 6 6 0 0 0 6 6 6.638 6.638 0 0 0 .09 1h-4.09a1 1 0 0 0 -.83.45l-1.71 2.55h-1.6a4 4 0 1 0 0 2h2.14a1 1 0 0 0 .83-.45l1.71-2.55h4.27a6 6 0 0 0 11.19-3v-12.29a7.042 7.042 0 0 0 4 0v12.29a6 6 0 0 0 11.19 3h4.27l1.71 2.55a1 1 0 0 0 .83.45h2.14a4 4 0 1 0 0-2h-1.6l-1.71-2.55a1 1 0 0 0 -.83-.45h-4.09a6.638 6.638 0 0 0 .09-1 6 6 0 0 0 6-6 5.809 5.809 0 0 0 -.36-2h2.5a4 4 0 0 0 3.86 3zm0-6a2 2 0 1 1 -2 2 2.006 2.006 0 0 1 2-2zm0-14a2 2 0 1 1 -2 2 2.006 2.006 0 0 1 2-2zm-52 4a2 2 0 1 1 2-2 2.006 2.006 0 0 1 -2 2zm0 14a2 2 0 1 1 2-2 2.006 2.006 0 0 1 -2 2zm0 14a2 2 0 1 1 2-2 2.006 2.006 0 0 1 -2 2zm52-4a2 2 0 1 1 -2 2 2.006 2.006 0 0 1 2-2zm-36-36a10 10 0 1 1 17.27 6.85.746.746 0 0 0 -.09.15h-4.18v-2h2a1 1 0 0 0 1-1v-4a1 1 0 0 0 -1-1h-3a1 1 0 0 0 -1 1v3h-2v-3a1 1 0 0 0 -1-1h-3a1 1 0 0 0 -1 1v4a1 1 0 0 0 1 1h2v2h-4.18a.746.746 0 0 0 -.09-.15 9.961 9.961 0 0 1 -2.73-6.85zm17 9v1a1 1 0 0 1 -1 1h-12a1 1 0 0 1 -1-1v-1zm-10-6h-1v-2h1zm2 4v-2h2v2zm4-4v-2h1v2zm-7 30a4 4 0 1 1 -4-4v-2a5.986 5.986 0 0 0 -5.63 3.96c-.13.01-.24.04-.37.04a4 4 0 0 1 -1.82-7.56 3.913 3.913 0 0 1 1.82-.44v-2a5.915 5.915 0 0 0 -1.78.28 3.942 3.942 0 0 1 1.97-4.83 6 6 0 0 0 5.81 4.55v-2a4 4 0 0 1 -.79-7.92 3.016 3.016 0 0 0 1.79 1.74v1.18a7.01 7.01 0 0 0 3 5.74zm4-14a5 5 0 0 1 -5-5v-1h10v1a5 5 0 0 1 -5 5zm14 12c-.13 0-.24-.03-.37-.04a5.986 5.986 0 0 0 -5.63-3.96v2a4 4 0 1 1 -4 4v-13.26a7.01 7.01 0 0 0 3-5.74v-1.18a3.016 3.016 0 0 0 1.79-1.74 4 4 0 0 1 -.79 7.92v2a6 6 0 0 0 5.81-4.55 3.942 3.942 0 0 1 1.97 4.83 5.915 5.915 0 0 0 -1.78-.28v2a3.872 3.872 0 0 1 1.83.45 4 4 0 0 1 -1.83 7.55z"/></g></svg>