<svg xmlns="http://www.w3.org/2000/svg" id="Layer_1" width="32" height="32" version="1" viewBox="0 0 32 32"><g id="g2994" transform="translate(.017 .093)"><path id="path7" fill="#239fdb" fill-rule="evenodd" d="m 31.966856,15.890628 c 0,8.851742 -7.164179,16.015921 -15.98408,16.015921 -8.8199001,0 -15.98407919,-7.164179 -15.98407919,-16.015921 0,-8.8199001 7.16417909,-15.98407919 15.98407919,-15.98407919 8.819901,0 15.98408,7.13233829 15.98408,15.98407919 l 0,0 z" clip-rule="evenodd"/><path id="path9" fill="#fff" d="m 9.0840782,7.0959353 v 16.5505807 0.331675 h 0.331675 19.6683248 v -0.696518 h -2.388061 v -9.684909 h -2.056384 v 9.684909 h -1.393034 v -3.781094 h -2.056386 v 3.781094 h -1.426202 v -8.955224 h -2.056384 v 8.988392 h -1.393036 v -5.870647 h -2.056384 v 5.870647 H 12.865173 V 11.241872 H 10.808788 V 23.314841 H 9.7805954 V 7.0959353 H 9.0840782 l 0,0 z m 2.0563848,2.0232173 -0.03317,0.6965177 c 0.298507,0 0.663349,0 1.028192,0.033167 0.364842,0.033167 0.696518,0.0995 0.862355,0.1658367 0.199006,0.0995 0.364842,0.265341 0.464345,0.530681 0.13267,0.232173 0.199005,0.563848 0.298507,0.895523 0.0995,0.331675 0.199006,0.696516 0.398011,1.028191 0.199004,0.331675 0.497512,0.597016 0.862354,0.729686 0.431178,0.132669 0.79602,0.0995 1.127695,-0.06633 0.331675,-0.165837 0.597015,-0.431177 0.79602,-0.696516 0.464345,-0.530681 0.862355,-1.160863 1.127695,-1.3267 0.26534,-0.165838 0.431177,-0.199006 0.563847,-0.199006 0.13267,0 0.298508,0.06633 0.597015,0.232173 0.0995,0.06633 0.364843,0.26534 0.630183,0.497512 0.26534,0.232173 0.597015,0.497512 0.92869,0.762853 0.331675,0.232172 0.696517,0.464345 1.061359,0.597015 0.364843,0.132669 0.79602,0.199005 1.19403,0 0.53068,-0.26534 0.895522,-0.829188 1.3267,-1.293533 0.364843,-0.398009 0.696517,-0.66335 0.995025,-0.762852 l 0.232172,0.696517 1.492538,-1.59204 -2.12272,-0.4975119 0.199005,0.7296849 c -0.497512,0.13267 -0.92869,0.563847 -1.293532,0.961857 -0.464345,0.497513 -0.895523,0.995025 -1.127695,1.127695 -0.165838,0.06633 -0.364843,0.06633 -0.630182,-0.03317 -0.265341,-0.0995 -0.597016,-0.298508 -0.895523,-0.530681 -0.331675,-0.232171 -0.630182,-0.497511 -0.92869,-0.729684 -0.26534,-0.232173 -0.497512,-0.431177 -0.696517,-0.53068 -0.331675,-0.165838 -0.597015,-0.298507 -0.92869,-0.298507 -0.298507,0 -0.597015,0.0995 -0.92869,0.298507 -0.563848,0.331675 -0.92869,0.961857 -1.3267,1.426202 -0.199005,0.232173 -0.39801,0.431178 -0.597015,0.53068 -0.199004,0.0995 -0.364842,0.13267 -0.597015,0.03317 -0.232171,-0.06633 -0.364841,-0.199005 -0.49751,-0.431177 C 14.589882,11.872058 14.49038,11.57355 14.390877,11.241875 14.291377,10.9102 14.191872,10.545358 14.026034,10.24685 13.860197,9.9483401 13.628025,9.5834974 13.263182,9.4176599 12.931507,9.2518226 12.533497,9.1854876 12.135487,9.1854876 11.803812,9.1191526 11.405802,9.1191526 11.140463,9.1191526 l 0,0 z"/></g></svg>