<svg xmlns="http://www.w3.org/2000/svg" data-name="Layer 1" viewBox="0 0 128 128"><polygon points="83.4 128 91 128 95.29 128 95.26 123.16 94 122.51 83.4 128"/><path d="M92.21,65.1,82.79,83.92l-21.07,3a2,2,0,0,0-1.11,3.42L75.85,105l-3.31,19-.29,1.66a2,2,0,0,0,2.89,2.12L94,118l1.51.79,17.35,9a2,2,0,0,0,2.89-2.12L112.15,105l15.24-14.64a2,2,0,0,0-1.11-3.42l-21.07-3L95.79,65.1a1.89,1.89,0,0,0-.61-.7A1.93,1.93,0,0,0,94,64,2,2,0,0,0,92.21,65.1Zm3,7.84,6.86,13.71a2,2,0,0,0,1.5,1.08l18.06,2.59-13,12.53a2,2,0,0,0-.58,1.78l3.08,17.74-15.62-8.1-.57-.29a2,2,0,0,0-1.84,0l-16.19,8.39L80,104.63a2,2,0,0,0-.58-1.78l-13-12.53L84.4,87.73a2,2,0,0,0,1.5-1.08L94,70.47Z"/><path d="M86.56 99.92a2 2 0 1 0-3 2.62l5.17 6a2 2 0 0 0 2.82.21l16.73-14.41a2 2 0 0 0-2.61-3L90.43 104.39zM61.15 83l19-2.72L82.28 76H13.71v36H70.57l1-5.59L57.84 93.24A6 6 0 0 1 61.15 83z"/><path d="M4 128H68.56a6 6 0 0 1-.25-3l1.56-9v0H13.81a4 4 0 0 1-4-4V76a4 4 0 0 1 4-4H84.28l4.35-8.69A6 6 0 0 1 94 60V20H0V124A4 4 0 0 0 4 128zM13 28H82.71a2 2 0 0 1 0 4H13a2 2 0 0 1 0-4zm0 8H82.71a2 2 0 0 1 0 4H13a2 2 0 0 1 0-4zm0 8H82.71a2 2 0 1 1 0 4H13a2 2 0 0 1 0-4zm0 8H82.71a2 2 0 1 1 0 4H13a2 2 0 0 1 0-4zm0 8H82.71a2 2 0 1 1 0 4H13a2 2 0 0 1 0-4zM94 6a6 6 0 0 0-5.92-6H5.92A6 6 0 0 0 0 6V16H94zM70.71 10h-6a2 2 0 0 1 0-4h6a2 2 0 0 1 0 4zm14 0h-6a2 2 0 0 1 0-4h6a2 2 0 0 1 0 4z"/></svg>