<svg height="512" viewBox="0 0 64 64" width="512" xmlns="http://www.w3.org/2000/svg"><g id="man-avatar-reading-student-education-book_store" data-name="man-avatar-reading-student-education-book store"><path d="m44 61h-31v-20a6 6 0 0 1 6-6h24z" fill="#f7d880"/><path d="m21 61h31v-20a6 6 0 0 0 -6-6h-24z" fill="#f7d880"/><path d="m28 27h8a0 0 0 0 1 0 0v9a4 4 0 0 1 -4 4 4 4 0 0 1 -4-4v-9a0 0 0 0 1 0 0z" fill="#ffcbbe"/><path d="m23 12h18a0 0 0 0 1 0 0v10a9 9 0 0 1 -9 9 9 9 0 0 1 -9-9v-10a0 0 0 0 1 0 0z" fill="#ffddce"/><path d="m21 15h2a0 0 0 0 1 0 0v6a0 0 0 0 1 0 0h-2a2 2 0 0 1 -2-2v-2a2 2 0 0 1 2-2z" fill="#ffcbbe"/><path d="m43 15h2a0 0 0 0 1 0 0v6a0 0 0 0 1 0 0h-2a2 2 0 0 1 -2-2v-2a2 2 0 0 1 2-2z" fill="#ffcbbe" transform="matrix(-1 0 0 -1 86 36)"/><path d="m43 4v6a2.006 2.006 0 0 1 -2 2h-18a3 3 0 0 1 -3-3v-6h16a1.968 1.968 0 0 1 1.72 1z" fill="#3e3d42"/><path d="m10 61h22v-13a6 6 0 0 0 -6-6h-16z" fill="#6bc19a"/><path d="m54 61h-22v-13a6 6 0 0 1 6-6h16z" fill="#6fc991"/><g fill="#ffcbbe"><path d="m8 61h3a4 4 0 0 0 4-4 4 4 0 0 0 -4-4h-5v6a2 2 0 0 0 2 2z"/><path d="m8 49h2a0 0 0 0 1 0 0v4a0 0 0 0 1 0 0h-4a0 0 0 0 1 0 0v-2a2 2 0 0 1 2-2z"/><path d="m56 61h-3a4 4 0 0 1 -4-4 4 4 0 0 1 4-4h5v6a2 2 0 0 1 -2 2z"/><path d="m54 49h4a0 0 0 0 1 0 0v4a0 0 0 0 1 0 0h-2a2 2 0 0 1 -2-2v-2a0 0 0 0 1 0 0z" transform="matrix(-1 0 0 -1 112 102)"/></g><path d="m56 48h-1v-6a1 1 0 0 0 -1-1h-2a7.008 7.008 0 0 0 -7-7h-8v-3.35a10.023 10.023 0 0 0 5-8.65h1a3.009 3.009 0 0 0 3-3v-2a3.009 3.009 0 0 0 -3-3h-1v-1.18a3.01 3.01 0 0 0 2-2.82v-6a1 1 0 0 0 -1-1h-4.78a2.986 2.986 0 0 0 -2.22-1h-16a1 1 0 0 0 -1 1v6a4 4 0 0 0 3 3.86v1.14h-1a3.009 3.009 0 0 0 -3 3v2a3.009 3.009 0 0 0 3 3h1a10.023 10.023 0 0 0 5 8.65v3.35h-8a7.008 7.008 0 0 0 -7 7h-2a1 1 0 0 0 -1 1v6h-1a3.009 3.009 0 0 0 -3 3v8a3.009 3.009 0 0 0 3 3h48a3.009 3.009 0 0 0 3-3v-8a3.009 3.009 0 0 0 -3-3zm-34-28h-1a1 1 0 0 1 -1-1v-2a1 1 0 0 1 1-1h1zm21-4a1 1 0 0 1 1 1v2a1 1 0 0 1 -1 1h-1v-4zm-22-7v-5h15a1 1 0 0 1 1 1v2h2v-2h3v5a1 1 0 0 1 -1 1h-18a2.006 2.006 0 0 1 -2-2zm3 13v-9h16v9a8 8 0 0 1 -16 0zm11 9.54v4.46a3 3 0 0 1 -6 0v-4.46a10.013 10.013 0 0 0 6 0zm-28 19.46a1 1 0 0 1 1-1h1v2h-2zm4 9h-3a1 1 0 0 1 -1-1v-5h4a3 3 0 0 1 0 6zm20 0h-16.03a4.924 4.924 0 0 0 1.03-3 5 5 0 0 0 -5-5v-9h15a5 5 0 0 1 5 5zm-5-19h-12a5 5 0 0 1 5-5h8a5 5 0 0 0 10 0h8a5 5 0 0 1 5 5h-12a6.986 6.986 0 0 0 -6 3.41 6.986 6.986 0 0 0 -6-3.41zm23.03 19h-16.03v-12a5 5 0 0 1 5-5h15v9a5 5 0 0 0 -5 5 4.924 4.924 0 0 0 1.03 3zm7.97-1a1 1 0 0 1 -1 1h-3a3 3 0 0 1 0-6h4zm0-7h-2v-2h1a1 1 0 0 1 1 1z"/><rect height="3" rx="1" width="2" x="28" y="17"/><rect height="3" rx="1" width="2" x="34" y="17"/></g></svg>