<svg xmlns="http://www.w3.org/2000/svg" id="Layer_1" enable-background="new 0 0 64 64" viewBox="0 0 64 64"><path fill="#846d6e" d="M10.82 27.2H6.31c-.53 0-.97.44-.97.97v4.51c0 .53.44.97.97.97h4.51c.54 0 .97-.44.97-.97v-4.51C11.79 27.63 11.36 27.2 10.82 27.2zM9.85 31.7H7.28v-2.57h2.57V31.7zM19.85 27.2h-4.51c-.53 0-.97.44-.97.97v4.51c0 .53.44.97.97.97h4.51c.54 0 .97-.44.97-.97v-4.51C20.82 27.63 20.39 27.2 19.85 27.2zM18.88 31.7h-2.57v-2.57h2.57V31.7zM28.88 27.2h-4.51c-.53 0-.97.44-.97.97v4.51c0 .53.44.97.97.97h4.51c.54 0 .97-.44.97-.97v-4.51C29.85 27.63 29.42 27.2 28.88 27.2zM27.91 31.7h-2.57v-2.57h2.57V31.7zM37.91 27.2H33.4c-.53 0-.97.44-.97.97v4.51c0 .53.44.97.97.97h4.51c.54 0 .97-.44.97-.97v-4.51C38.88 27.63 38.45 27.2 37.91 27.2zM36.94 31.7h-2.57v-2.57h2.57V31.7zM10.82 36.13H6.31c-.53 0-.97.43-.97.97v4.51c0 .53.44.97.97.97h4.51c.54 0 .97-.44.97-.97V37.1C11.79 36.55 11.36 36.13 10.82 36.13zM9.85 40.64H7.28v-2.57h2.57V40.64zM19.85 36.13h-4.51c-.53 0-.97.43-.97.97v4.51c0 .53.44.97.97.97h4.51c.54 0 .97-.44.97-.97V37.1C20.82 36.55 20.39 36.13 19.85 36.13zM18.88 40.64h-2.57v-2.57h2.57V40.64zM28.88 36.13h-4.51c-.53 0-.97.43-.97.97v4.51c0 .53.44.97.97.97h4.51c.54 0 .97-.44.97-.97V37.1C29.85 36.55 29.42 36.13 28.88 36.13zM27.91 40.64h-2.57v-2.57h2.57V40.64zM37.91 36.13H33.4c-.53 0-.97.43-.97.97v4.51c0 .53.44.97.97.97h4.51c.54 0 .97-.44.97-.97V37.1C38.88 36.55 38.45 36.13 37.91 36.13zM36.94 40.64h-2.57v-2.57h2.57V40.64z"/><path fill="#846d6e" d="M52.04,28.8c-3,0-5.72,1.12-7.83,2.94V17.87c0-1.69-1.37-3.05-3.05-3.05h-4.43v-2.56
		c0-0.53-0.43-0.97-0.97-0.97c-0.53,0-0.97,0.44-0.97,0.97v2.56H23.08v-2.56c0-0.53-0.43-0.97-0.97-0.97
		c-0.53,0-0.97,0.44-0.97,0.97v2.56H9.44v-2.56c0-0.53-0.44-0.97-0.97-0.97c-0.54,0-0.97,0.44-0.97,0.97v2.56H3.07
		c-1.7,0-3.07,1.37-3.07,3.05v26.97c0,1.7,1.38,3.07,3.07,3.07h38.09c0.4,0,0.79-0.09,1.14-0.23c2.17,3.04,5.72,5.04,9.74,5.04
		c6.59,0,11.96-5.36,11.96-11.97C64,34.16,58.64,28.8,52.04,28.8z M1.94,17.87c0-0.62,0.51-1.12,1.13-1.12H7.5v3.06
		c0,0.53,0.43,0.97,0.97,0.97c0.53,0,0.97-0.44,0.97-0.97v-3.06h11.7v3.06c0,0.53,0.44,0.97,0.97,0.97c0.54,0,0.97-0.44,0.97-0.97
		v-3.06h11.71v3.06c0,0.53,0.44,0.97,0.97,0.97c0.54,0,0.97-0.44,0.97-0.97v-3.06h4.43c0.61,0,1.12,0.49,1.12,1.12v4.6H1.94V17.87z
		 M41.16,45.97H3.07c-0.62,0-1.13-0.51-1.13-1.13V24.4h40.34v9.46c-1.38,1.95-2.2,4.32-2.2,6.88c0,1.87,0.45,3.63,1.21,5.2
		C41.24,45.96,41.2,45.97,41.16,45.97z M52.04,50.78c-5.53,0-10.03-4.5-10.03-10.03c0-5.52,4.5-10.02,10.03-10.02
		c5.53,0,10.02,4.5,10.02,10.02C62.06,46.28,57.57,50.78,52.04,50.78z"/><path fill="#e5e5e4" d="M52.04 30.73c-5.53 0-10.03 4.5-10.03 10.02 0 5.53 4.5 10.03 10.03 10.03 5.53 0 10.02-4.5 10.02-10.03C62.06 35.23 57.57 30.73 52.04 30.73zM50.97 32.11c0-.53.44-.97.97-.97s.97.44.97.97v1.29c0 .53-.44.97-.97.97s-.97-.44-.97-.97V32.11zM45.17 34.03c.38-.38 1-.38 1.38 0l.91.91c.38.38.38.99 0 1.37-.19.19-.45.29-.69.29-.25 0-.49-.1-.69-.29l-.91-.91C44.79 35.02 44.79 34.41 45.17 34.03zM44.68 41.83h-1.29c-.53 0-.97-.43-.97-.97 0-.53.44-.97.97-.97h1.29c.54 0 .97.44.97.97C45.65 41.4 45.23 41.83 44.68 41.83zM47.6 46.72l-.91.91c-.19.19-.44.29-.69.29-.24 0-.49-.1-.68-.29-.39-.38-.39-.99 0-1.37l.91-.91c.38-.38.99-.38 1.37 0S47.98 46.34 47.6 46.72zM53.12 49.4c0 .53-.44.97-.97.97-.53 0-.97-.44-.97-.97v-1.29c0-.53.44-.97.97-.97.53 0 .97.44.97.97V49.4zM52.04 43.61c-1.17 0-2.17-.75-2.57-1.78h-1.66c-.54 0-.97-.43-.97-.97 0-.53.43-.97.97-.97h1.66c.28-.74.86-1.32 1.6-1.59v-2.2c0-.54.44-.97.97-.97.53 0 .97.43.97.97v2.2c1.04.39 1.78 1.39 1.78 2.56C54.8 42.38 53.57 43.61 52.04 43.61zM56.48 34.8l.91-.91c.38-.38.99-.38 1.37 0 .38.38.38.99 0 1.37l-.91.91c-.18.19-.44.28-.68.28-.25 0-.49-.09-.69-.28C56.11 35.79 56.11 35.18 56.48 34.8zM58.92 47.48c-.19.18-.44.28-.69.28-.25 0-.49-.1-.69-.28l-.91-.91c-.38-.38-.38-.99 0-1.38.38-.38 1-.38 1.38 0l.91.91C59.3 46.48 59.3 47.1 58.92 47.48zM60.68 41.62H59.4c-.54 0-.97-.44-.97-.97 0-.54.43-.97.97-.97h1.28c.54 0 .97.43.97.97C61.65 41.19 61.23 41.62 60.68 41.62zM42.28 24.4H1.94v20.43c0 .62.51 1.13 1.13 1.13h38.09c.04 0 .08-.01.13-.02-.77-1.57-1.21-3.33-1.21-5.2 0-2.56.82-4.94 2.2-6.88V24.4zM11.79 41.6c0 .53-.43.97-.97.97H6.31c-.53 0-.97-.44-.97-.97V37.1c0-.54.44-.97.97-.97h4.51c.54 0 .97.43.97.97V41.6zM11.79 32.67c0 .53-.43.97-.97.97H6.31c-.53 0-.97-.44-.97-.97v-4.51c0-.53.44-.97.97-.97h4.51c.54 0 .97.44.97.97V32.67zM20.82 41.6c0 .53-.43.97-.97.97h-4.51c-.53 0-.97-.44-.97-.97V37.1c0-.54.44-.97.97-.97h4.51c.54 0 .97.43.97.97V41.6zM20.82 32.67c0 .53-.43.97-.97.97h-4.51c-.53 0-.97-.44-.97-.97v-4.51c0-.53.44-.97.97-.97h4.51c.54 0 .97.44.97.97V32.67zM29.85 41.6c0 .53-.43.97-.97.97h-4.51c-.53 0-.97-.44-.97-.97V37.1c0-.54.44-.97.97-.97h4.51c.54 0 .97.43.97.97V41.6zM29.85 32.67c0 .53-.43.97-.97.97h-4.51c-.53 0-.97-.44-.97-.97v-4.51c0-.53.44-.97.97-.97h4.51c.54 0 .97.44.97.97V32.67zM38.88 41.6c0 .53-.43.97-.97.97H33.4c-.53 0-.97-.44-.97-.97V37.1c0-.54.44-.97.97-.97h4.51c.54 0 .97.43.97.97V41.6zM38.88 32.67c0 .53-.43.97-.97.97H33.4c-.53 0-.97-.44-.97-.97v-4.51c0-.53.44-.97.97-.97h4.51c.54 0 .97.44.97.97V32.67z"/><rect width="2.57" height="2.57" x="34.37" y="38.07" fill="#d1d1d1"/><rect width="2.57" height="2.57" x="25.34" y="38.07" fill="#d1d1d1"/><rect width="2.57" height="2.57" x="16.31" y="38.07" fill="#d1d1d1"/><rect width="2.57" height="2.57" x="7.28" y="38.07" fill="#d1d1d1"/><rect width="2.57" height="2.57" x="7.28" y="29.13" fill="#d1d1d1"/><rect width="2.57" height="2.57" x="16.31" y="29.13" fill="#d1d1d1"/><rect width="2.57" height="2.57" x="25.34" y="29.13" fill="#d1d1d1"/><rect width="2.57" height="2.57" x="34.37" y="29.13" fill="#d1d1d1"/><path fill="#f3afbd" d="M42.28,17.87v4.6H1.94v-4.6c0-0.62,0.51-1.12,1.13-1.12H7.5v3.06c0,0.53,0.43,0.97,0.97,0.97
		c0.53,0,0.97-0.44,0.97-0.97v-3.06h11.7v3.06c0,0.53,0.44,0.97,0.97,0.97c0.54,0,0.97-0.44,0.97-0.97v-3.06h11.71v3.06
		c0,0.53,0.44,0.97,0.97,0.97c0.54,0,0.97-0.44,0.97-0.97v-3.06h4.43C41.77,16.75,42.28,17.25,42.28,17.87z"/><path fill="#d1d1d1" d="M41.29,45.95c-0.05,0.01-0.09,0.02-0.13,0.02H3.07c-0.62,0-1.13-0.51-1.13-1.13V24.4h5.8v2.79H6.31
		c-0.53,0-0.97,0.44-0.97,0.97v4.51c0,0.53,0.44,0.97,0.97,0.97h1.43v2.48H6.31c-0.53,0-0.97,0.43-0.97,0.97v4.51
		c0,0.53,0.44,0.97,0.97,0.97h1.43v0.04c0,0.61,0.51,1.13,1.13,1.13h31.6C40.67,44.51,40.95,45.25,41.29,45.95z"/><path fill="#f19bab" d="M7.74,20.46v2.01h-5.8v-4.6c0-0.62,0.51-1.12,1.13-1.12H7.5v3.06C7.5,20.06,7.58,20.28,7.74,20.46z"/><path fill="#846d6e" d="M52.91 32.11v1.29c0 .53-.44.97-.97.97s-.97-.44-.97-.97v-1.29c0-.53.44-.97.97-.97S52.91 31.58 52.91 32.11zM47.46 36.31c-.19.19-.45.29-.69.29-.25 0-.49-.1-.69-.29l-.91-.91c-.38-.38-.38-.99 0-1.37.38-.38 1-.38 1.38 0l.91.91C47.84 35.32 47.84 35.93 47.46 36.31zM45.65 40.86c0 .54-.43.97-.97.97h-1.29c-.53 0-.97-.43-.97-.97 0-.53.44-.97.97-.97h1.29C45.23 39.89 45.65 40.32 45.65 40.86zM47.6 46.72l-.91.91c-.19.19-.44.29-.69.29-.24 0-.49-.1-.68-.29-.39-.38-.39-.99 0-1.37l.91-.91c.38-.38.99-.38 1.37 0S47.98 46.34 47.6 46.72zM53.12 48.11v1.29c0 .53-.44.97-.97.97-.53 0-.97-.44-.97-.97v-1.29c0-.53.44-.97.97-.97C52.68 47.14 53.12 47.58 53.12 48.11zM58.92 47.48c-.19.18-.44.28-.69.28-.25 0-.49-.1-.69-.28l-.91-.91c-.38-.38-.38-.99 0-1.38.38-.38 1-.38 1.38 0l.91.91C59.3 46.48 59.3 47.1 58.92 47.48zM61.65 40.65c0 .53-.43.97-.97.97H59.4c-.54 0-.97-.44-.97-.97 0-.54.43-.97.97-.97h1.28C61.23 39.68 61.65 40.11 61.65 40.65zM58.76 35.25l-.91.91c-.18.19-.44.28-.68.28-.25 0-.49-.09-.69-.28-.38-.38-.38-.99 0-1.37l.91-.91c.38-.38.99-.38 1.37 0C59.14 34.26 59.14 34.88 58.76 35.25zM53.01 38.3v-2.2c0-.54-.44-.97-.97-.97-.53 0-.97.43-.97.97v2.2c-.74.27-1.32.85-1.6 1.59h-1.66c-.54 0-.97.44-.97.97 0 .54.43.97.97.97h1.66c.4 1.04 1.4 1.78 2.57 1.78 1.52 0 2.75-1.23 2.75-2.75C54.8 39.68 54.05 38.69 53.01 38.3zM52.04 41.67c-.45 0-.81-.36-.81-.81 0-.45.37-.81.81-.81.45 0 .81.37.81.81C52.86 41.31 52.49 41.67 52.04 41.67z"/><path fill="#d1d1d1" d="M52.86,40.86c0,0.46-0.37,0.81-0.81,0.81c-0.45,0-0.81-0.36-0.81-0.81c0-0.45,0.37-0.81,0.81-0.81
		C52.49,40.04,52.86,40.41,52.86,40.86z"/></svg>