<svg xmlns="http://www.w3.org/2000/svg" data-name="Layer 1" viewBox="0 0 512 512"><path fill="#3c3b41" d="M376,444.5H136a15,15,0,0,1-9-3l-41-31H426l-41,31A15,15,0,0,1,376,444.5Z"/><rect width="50" height="60" x="231" y="444.5" fill="#c8c5cc"/><rect width="495" height="390" x="8.5" y="20.5" fill="#e1762f" rx="15"/><rect width="435" height="330" x="38.5" y="50.66" fill="#e1e1e3" rx="15"/><path fill="#58575d" d="M38.5,170.68h435a0,0,0,0,1,0,0v195a15,15,0,0,1-15,15H53.5a15,15,0,0,1-15-15v-195A0,0,0,0,1,38.5,170.68Z"/><rect width="375" height="150" x="68.5" y="200.68" fill="#e1e1e3" rx="30"/><rect width="30" height="30" x="241" y="290.68" fill="#3c3b41"/><rect width="30" height="30" x="241" y="230.68" fill="#3c3b41"/><path fill="#3c3b41" d="M146.36,148.66h-30a7.5,7.5,0,1,1,0-15h22.5v-22.5a7.5,7.5,0,1,1,15,0v30A7.5,7.5,0,0,1,146.36,148.66Z"/><path fill="#3c3b41" d="M146.36 118.66h-30a7.5 7.5 0 0 1-7.5-7.5v-30a7.5 7.5 0 0 1 7.5-7.5h30a7.5 7.5 0 0 1 0 15h-22.5v15h22.5a7.5 7.5 0 0 1 0 15zM206.36 148h-30a7.5 7.5 0 0 1-7.5-7.5v-60a7.5 7.5 0 0 1 7.5-7.5h30a7.5 7.5 0 0 1 0 15h-22.5v45h22.5a7.5 7.5 0 0 1 0 15zM266.36 147.7h-30a7.5 7.5 0 0 1-7.5-7.5v-60a7.5 7.5 0 0 1 7.5-7.5h30a7.5 7.5 0 0 1 7.5 7.5v60A7.5 7.5 0 0 1 266.36 147.7zm-22.5-15h15v-45h-15zM386.36 147.7h-30a7.5 7.5 0 0 1-7.5-7.5v-60a7.5 7.5 0 0 1 7.5-7.5h30a7.5 7.5 0 0 1 0 15h-22.5v45h22.5a7.5 7.5 0 0 1 0 15z"/><path fill="#3c3b41" d="M386.36 117.7h-30a7.5 7.5 0 0 1-7.5-7.5v-30a7.5 7.5 0 0 1 7.5-7.5h30a7.5 7.5 0 0 1 0 15h-22.5v15h22.5a7.5 7.5 0 0 1 0 15zM296.36 147.7a7.5 7.5 0 0 1-7.5-7.5v-60a7.5 7.5 0 0 1 7.5-7.5h30a7.5 7.5 0 0 1 0 15h-22.5v52.5A7.5 7.5 0 0 1 296.36 147.7z"/><path fill="#3c3b41" d="M326.36,117.69h-30a7.5,7.5,0,0,1-7.5-7.5v-30a7.5,7.5,0,0,1,15,0v22.5h15V80.19a7.5,7.5,0,0,1,15,0v30A7.5,7.5,0,0,1,326.36,117.69Z"/><path fill="#3c3b41" d="M326.36,147.87a7.5,7.5,0,0,1-5.32-2.21l-30-30.18a7.5,7.5,0,1,1,10.64-10.58l30,30.19a7.5,7.5,0,0,1-5.32,12.78Z"/></svg>